<mxfile host="app.diagrams.net" modified="2020-09-20T14:33:53.291Z" agent="5.0 (Macintosh; Intel Mac OS X 10_11_6) AppleWebKit/537.36 (KHTML, like Gecko) Chrome/81.0.4044.122 Safari/537.36" etag="ot6K3pQPWWxVrsUPOQXi" version="13.7.3" type="github">
  <diagram id="aI2lzdCRRaUCuK2vpi8y" name="第 1 页">
    <mxGraphModel dx="946" dy="619" grid="1" gridSize="10" guides="1" tooltips="1" connect="1" arrows="1" fold="1" page="1" pageScale="1" pageWidth="827" pageHeight="1169" math="0" shadow="0">
      <root>
        <mxCell id="0" />
        <mxCell id="1" parent="0" />
        <mxCell id="UJ6w3iREg00oXYVvllej-1" value="" style="verticalLabelPosition=bottom;verticalAlign=top;html=1;shape=mxgraph.basic.patternFillRect;fillStyle=diag;step=5;fillStrokeWidth=0.2;fillStrokeColor=#dddddd;" vertex="1" parent="1">
          <mxGeometry x="200" y="80" width="390" height="400" as="geometry" />
        </mxCell>
        <mxCell id="UJ6w3iREg00oXYVvllej-31" style="edgeStyle=orthogonalEdgeStyle;rounded=0;orthogonalLoop=1;jettySize=auto;html=1;exitX=0.5;exitY=0.5;exitDx=0;exitDy=0;exitPerimeter=0;entryX=0.333;entryY=0.368;entryDx=0;entryDy=0;entryPerimeter=0;" edge="1" parent="1" source="UJ6w3iREg00oXYVvllej-2" target="UJ6w3iREg00oXYVvllej-1">
          <mxGeometry relative="1" as="geometry" />
        </mxCell>
        <mxCell id="UJ6w3iREg00oXYVvllej-32" style="edgeStyle=orthogonalEdgeStyle;rounded=0;orthogonalLoop=1;jettySize=auto;html=1;exitX=0.5;exitY=0.5;exitDx=0;exitDy=0;exitPerimeter=0;entryX=0.328;entryY=0.065;entryDx=0;entryDy=0;entryPerimeter=0;" edge="1" parent="1" source="UJ6w3iREg00oXYVvllej-2" target="UJ6w3iREg00oXYVvllej-1">
          <mxGeometry relative="1" as="geometry" />
        </mxCell>
        <mxCell id="UJ6w3iREg00oXYVvllej-33" style="edgeStyle=orthogonalEdgeStyle;rounded=0;orthogonalLoop=1;jettySize=auto;html=1;exitX=0.5;exitY=0.5;exitDx=0;exitDy=0;exitPerimeter=0;entryX=0.333;entryY=0.163;entryDx=0;entryDy=0;entryPerimeter=0;" edge="1" parent="1" source="UJ6w3iREg00oXYVvllej-2" target="UJ6w3iREg00oXYVvllej-1">
          <mxGeometry relative="1" as="geometry" />
        </mxCell>
        <mxCell id="UJ6w3iREg00oXYVvllej-34" style="edgeStyle=orthogonalEdgeStyle;rounded=0;orthogonalLoop=1;jettySize=auto;html=1;exitX=0.5;exitY=0.5;exitDx=0;exitDy=0;exitPerimeter=0;entryX=0.328;entryY=0.268;entryDx=0;entryDy=0;entryPerimeter=0;" edge="1" parent="1" source="UJ6w3iREg00oXYVvllej-2" target="UJ6w3iREg00oXYVvllej-1">
          <mxGeometry relative="1" as="geometry" />
        </mxCell>
        <mxCell id="UJ6w3iREg00oXYVvllej-2" value="消费者" style="shape=umlActor;verticalLabelPosition=bottom;verticalAlign=top;html=1;outlineConnect=0;" vertex="1" parent="1">
          <mxGeometry x="100" y="115" width="30" height="60" as="geometry" />
        </mxCell>
        <mxCell id="UJ6w3iREg00oXYVvllej-35" style="edgeStyle=orthogonalEdgeStyle;rounded=0;orthogonalLoop=1;jettySize=auto;html=1;exitX=0.5;exitY=0.5;exitDx=0;exitDy=0;exitPerimeter=0;entryX=0;entryY=0.5;entryDx=0;entryDy=0;" edge="1" parent="1" source="UJ6w3iREg00oXYVvllej-4" target="UJ6w3iREg00oXYVvllej-10">
          <mxGeometry relative="1" as="geometry" />
        </mxCell>
        <mxCell id="UJ6w3iREg00oXYVvllej-4" value="服务员" style="shape=umlActor;verticalLabelPosition=bottom;verticalAlign=top;html=1;outlineConnect=0;" vertex="1" parent="1">
          <mxGeometry x="100" y="240" width="30" height="60" as="geometry" />
        </mxCell>
        <mxCell id="UJ6w3iREg00oXYVvllej-36" style="edgeStyle=orthogonalEdgeStyle;rounded=0;orthogonalLoop=1;jettySize=auto;html=1;exitX=0.5;exitY=0.5;exitDx=0;exitDy=0;exitPerimeter=0;entryX=0.331;entryY=0.668;entryDx=0;entryDy=0;entryPerimeter=0;" edge="1" parent="1" source="UJ6w3iREg00oXYVvllej-5" target="UJ6w3iREg00oXYVvllej-1">
          <mxGeometry relative="1" as="geometry" />
        </mxCell>
        <mxCell id="UJ6w3iREg00oXYVvllej-37" style="edgeStyle=orthogonalEdgeStyle;rounded=0;orthogonalLoop=1;jettySize=auto;html=1;exitX=0.5;exitY=0.5;exitDx=0;exitDy=0;exitPerimeter=0;entryX=0.333;entryY=0.793;entryDx=0;entryDy=0;entryPerimeter=0;" edge="1" parent="1" source="UJ6w3iREg00oXYVvllej-5" target="UJ6w3iREg00oXYVvllej-1">
          <mxGeometry relative="1" as="geometry" />
        </mxCell>
        <mxCell id="UJ6w3iREg00oXYVvllej-38" style="edgeStyle=orthogonalEdgeStyle;rounded=0;orthogonalLoop=1;jettySize=auto;html=1;exitX=0.5;exitY=0.5;exitDx=0;exitDy=0;exitPerimeter=0;entryX=0.328;entryY=0.895;entryDx=0;entryDy=0;entryPerimeter=0;" edge="1" parent="1" source="UJ6w3iREg00oXYVvllej-5" target="UJ6w3iREg00oXYVvllej-1">
          <mxGeometry relative="1" as="geometry" />
        </mxCell>
        <mxCell id="UJ6w3iREg00oXYVvllej-5" value="管理员" style="shape=umlActor;verticalLabelPosition=bottom;verticalAlign=top;html=1;outlineConnect=0;" vertex="1" parent="1">
          <mxGeometry x="100" y="365" width="30" height="60" as="geometry" />
        </mxCell>
        <mxCell id="UJ6w3iREg00oXYVvllej-8" value="注册" style="ellipse;whiteSpace=wrap;html=1;" vertex="1" parent="1">
          <mxGeometry x="330" y="90" width="60" height="30" as="geometry" />
        </mxCell>
        <mxCell id="UJ6w3iREg00oXYVvllej-9" value="充值&lt;span style=&quot;color: rgba(0 , 0 , 0 , 0) ; font-family: monospace ; font-size: 0px&quot;&gt;%3CmxGraphModel%3E%3Croot%3E%3CmxCell%20id%3D%220%22%2F%3E%3CmxCell%20id%3D%221%22%20parent%3D%220%22%2F%3E%3CmxCell%20id%3D%222%22%20value%3D%22%E6%B3%A8%E5%86%8C%22%20style%3D%22ellipse%3BwhiteSpace%3Dwrap%3Bhtml%3D1%3B%22%20vertex%3D%221%22%20parent%3D%221%22%3E%3CmxGeometry%20x%3D%22330%22%20y%3D%2290%22%20width%3D%2260%22%20height%3D%2230%22%20as%3D%22geometry%22%2F%3E%3C%2FmxCell%3E%3C%2Froot%3E%3C%2FmxGraphModel%3E&lt;/span&gt;" style="ellipse;whiteSpace=wrap;html=1;" vertex="1" parent="1">
          <mxGeometry x="330" y="130" width="60" height="30" as="geometry" />
        </mxCell>
        <mxCell id="UJ6w3iREg00oXYVvllej-10" value="收银" style="ellipse;whiteSpace=wrap;html=1;" vertex="1" parent="1">
          <mxGeometry x="330" y="255" width="60" height="30" as="geometry" />
        </mxCell>
        <mxCell id="UJ6w3iREg00oXYVvllej-11" value="消费" style="ellipse;whiteSpace=wrap;html=1;" vertex="1" parent="1">
          <mxGeometry x="330" y="170" width="60" height="30" as="geometry" />
        </mxCell>
        <mxCell id="UJ6w3iREg00oXYVvllej-12" value="查看余额" style="ellipse;whiteSpace=wrap;html=1;" vertex="1" parent="1">
          <mxGeometry x="330" y="210" width="60" height="30" as="geometry" />
        </mxCell>
        <mxCell id="UJ6w3iREg00oXYVvllej-13" value="监控消费流水" style="ellipse;whiteSpace=wrap;html=1;" vertex="1" parent="1">
          <mxGeometry x="330" y="330" width="90" height="30" as="geometry" />
        </mxCell>
        <mxCell id="UJ6w3iREg00oXYVvllej-14" value="统计消费数据" style="ellipse;whiteSpace=wrap;html=1;" vertex="1" parent="1">
          <mxGeometry x="330" y="380" width="90" height="30" as="geometry" />
        </mxCell>
        <mxCell id="UJ6w3iREg00oXYVvllej-15" value="打印消费报表" style="ellipse;whiteSpace=wrap;html=1;" vertex="1" parent="1">
          <mxGeometry x="330" y="420" width="90" height="30" as="geometry" />
        </mxCell>
        <mxCell id="UJ6w3iREg00oXYVvllej-17" value="身份信息" style="ellipse;whiteSpace=wrap;html=1;" vertex="1" parent="1">
          <mxGeometry x="480" y="90" width="90" height="30" as="geometry" />
        </mxCell>
        <mxCell id="UJ6w3iREg00oXYVvllej-18" value="Use" style="endArrow=open;endSize=12;dashed=1;html=1;" edge="1" parent="1">
          <mxGeometry width="160" relative="1" as="geometry">
            <mxPoint x="390" y="104.5" as="sourcePoint" />
            <mxPoint x="480" y="105" as="targetPoint" />
          </mxGeometry>
        </mxCell>
      </root>
    </mxGraphModel>
  </diagram>
</mxfile>
